<?xml version="1.0" standalone="no"?>
<!DOCTYPE svg PUBLIC "-//W3C//DTD SVG 20010904//EN"
 "http://www.w3.org/TR/2001/REC-SVG-20010904/DTD/svg10.dtd">
<svg version="1.0" xmlns="http://www.w3.org/2000/svg"
 width="500.000000pt" height="500.000000pt" viewBox="0 0 500.000000 500.000000"
 preserveAspectRatio="xMidYMid meet">
<metadata>
Created by potrace 1.14, written by Peter Selinger 2001-2017
</metadata>
<g transform="translate(0.000000,500.000000) scale(0.100000,-0.100000)"
fill="#000000" stroke="none">
<path d="M1244 4846 c-44 -13 -103 -35 -131 -50 -48 -27 -844 -668 -946 -763
-162 -150 -204 -385 -105 -579 20 -39 116 -166 245 -323 l212 -258 -78 -79
c-95 -97 -143 -187 -149 -278 -4 -57 -2 -63 26 -90 56 -53 155 -43 354 36 43
17 81 29 84 26 2 -3 0 -25 -7 -49 -6 -24 -12 -138 -14 -254 -4 -223 7 -326 54
-512 118 -460 430 -900 816 -1148 312 -201 641 -316 1033 -361 185 -22 464
-15 614 15 137 28 300 76 358 106 25 13 88 44 140 68 52 24 138 70 190 102 52
32 111 67 130 77 19 11 55 36 80 55 71 56 283 276 355 368 417 533 528 1235
295 1864 -34 93 -109 248 -158 326 l-31 50 74 37 c113 57 196 140 250 252 61
125 75 213 52 327 -31 159 -111 280 -241 367 -100 67 -177 92 -303 99 -99 6
-103 5 -103 -15 0 -11 -5 -33 -11 -49 l-10 -27 -19 42 c-25 55 -39 47 -29 -15
18 -109 4 -235 -16 -140 -9 40 -46 105 -77 135 l-25 22 -74 -48 c-88 -57 -145
-121 -195 -215 -21 -39 -41 -66 -47 -63 -7 2 -61 27 -122 54 -221 100 -538
181 -706 182 l-56 0 -6 -45 c-4 -25 -9 -55 -12 -68 -6 -23 -4 -23 119 -35 329
-33 697 -177 970 -380 166 -123 350 -315 457 -479 52 -81 144 -258 177 -343
34 -85 89 -315 102 -423 18 -142 8 -433 -20 -561 -78 -362 -245 -671 -505
-931 -470 -471 -1154 -670 -1830 -534 -365 73 -726 268 -991 533 -280 281
-462 636 -520 1014 -30 203 -16 565 26 678 5 12 35 37 67 55 88 50 232 142
334 214 l92 64 28 -16 c16 -10 29 -22 29 -27 0 -5 -16 -33 -35 -61 -159 -240
-236 -528 -206 -772 14 -114 70 -289 119 -374 46 -79 129 -148 231 -190 68
-28 83 -31 156 -27 181 9 270 99 510 513 122 210 184 290 263 339 50 31 139
56 200 56 38 0 43 2 32 14 -12 16 -56 32 -105 40 -16 2 -31 5 -32 5 -2 1 6 18
17 39 23 44 35 121 22 140 -7 11 -16 9 -43 -7 -43 -26 -89 -27 -122 -1 -14 11
-51 69 -83 128 -84 157 -165 271 -253 355 -91 87 -146 121 -242 152 l-70 22
138 125 c230 209 447 444 555 603 28 41 59 71 92 91 28 16 65 49 83 73 l33 43
0 -45 c0 -54 -15 -102 -46 -144 -13 -17 -24 -34 -24 -36 0 -2 18 -9 39 -16 22
-6 61 -31 89 -56 51 -46 77 -89 89 -147 l6 -33 -37 33 c-56 49 -158 82 -201
66 -14 -6 -14 -9 3 -28 35 -38 71 -110 82 -164 15 -70 8 -86 -17 -37 -28 53
-81 107 -129 130 -45 22 -161 34 -150 16 4 -6 13 -11 20 -11 23 0 94 -58 124
-102 45 -66 80 -166 94 -266 l12 -92 34 33 c54 52 93 146 100 240 l5 81 30
-35 c16 -19 37 -52 48 -74 11 -26 20 -34 23 -25 30 87 40 146 41 230 0 83 -4
102 -28 154 -15 32 -43 74 -63 92 -34 33 -35 34 -23 76 7 24 13 99 13 168 1
131 -13 197 -53 249 l-18 24 -26 -56 c-26 -57 -86 -141 -95 -132 -3 2 -6 18
-7 35 -3 38 -21 59 -62 77 -90 37 -270 -20 -405 -128 -34 -27 -66 -48 -70 -47
-9 3 -65 71 -298 359 -176 217 -227 255 -399 298 -98 25 -85 25 -187 -3z
m3469 -696 c68 -46 119 -97 158 -160 47 -75 81 -239 60 -290 -9 -23 -10 -22
-11 15 -3 165 -109 347 -263 450 -28 19 -44 35 -35 35 9 0 50 -22 91 -50z
m-2876 -972 c23 -25 53 -81 53 -98 0 -7 -10 -5 -28 4 -15 8 -54 22 -86 31
l-59 17 39 34 c47 40 54 41 81 12z m-172 -158 c16 -16 26 -32 24 -35 -3 -2
-34 1 -69 8 l-63 13 28 22 c36 29 46 28 80 -8z m210 -302 c-26 -81 -5 -144 59
-174 48 -23 98 -12 142 33 l36 36 23 -29 c44 -55 88 -135 79 -144 -25 -24
-143 -53 -219 -53 -70 -1 -87 3 -135 29 -66 35 -122 105 -150 188 -25 75 -25
83 3 98 26 14 112 36 146 37 20 1 22 -2 16 -21z m75 -8 c12 -7 12 -12 2 -22
-31 -31 1 -88 49 -88 18 0 34 9 48 28 19 25 20 25 21 6 0 -32 -45 -68 -87 -68
-27 0 -42 7 -64 32 -31 35 -35 57 -17 97 12 27 24 30 48 15z"/>
<path d="M3645 3197 c-160 -60 -312 -215 -441 -451 l-38 -69 22 -15 c12 -8 22
-22 22 -32 0 -28 -57 -71 -94 -70 -17 0 -48 -3 -68 -6 -28 -5 -47 -1 -73 15
-20 12 -38 21 -41 21 -13 0 -1 -111 16 -149 11 -24 20 -44 20 -45 0 -2 -16 -3
-35 -4 -39 -2 -105 -27 -105 -40 0 -5 32 -12 72 -16 170 -16 244 -83 419 -382
187 -320 277 -436 383 -492 45 -24 62 -27 147 -27 90 0 99 2 171 38 101 50
167 110 210 194 134 256 153 531 58 815 -34 101 -96 229 -151 310 -22 31 -39
61 -39 66 0 13 63 42 106 49 43 7 40 19 -13 57 -50 35 -148 45 -244 27 -33 -7
-64 -10 -67 -7 -8 9 38 55 73 74 17 8 48 21 70 28 l40 12 -30 13 c-18 9 -67
14 -125 14 -80 0 -105 -5 -160 -27 -35 -15 -66 -26 -68 -24 -11 11 17 65 53
102 l42 44 -36 -1 c-20 0 -63 -10 -96 -22z m194 -488 c42 -19 43 -20 36 -56
-18 -101 -91 -205 -173 -245 -64 -31 -180 -30 -272 2 -36 12 -69 26 -73 30 -9
8 22 66 65 122 l28 36 29 -28 c15 -16 44 -31 63 -35 94 -18 180 87 137 167 -8
16 -8 23 2 29 19 13 106 1 158 -22z m-199 -8 c13 -25 13 -67 -1 -93 -14 -26
-74 -51 -102 -42 -29 8 -67 44 -67 61 0 8 10 3 23 -13 19 -21 29 -26 50 -20
36 9 53 41 37 74 -10 22 -9 28 6 39 25 18 42 16 54 -6z"/>
<path d="M2665 2242 c-50 -25 -115 -80 -138 -120 l-18 -31 43 -11 c55 -15 123
-54 143 -82 8 -13 15 -37 15 -54 0 -97 -162 -90 -288 13 l-44 36 31 -59 c17
-33 38 -68 48 -80 61 -71 154 -91 254 -54 57 20 66 21 103 9 23 -8 77 -14 121
-14 94 0 128 16 175 82 32 44 65 123 52 123 -5 0 -25 -17 -46 -39 -77 -79
-191 -111 -254 -71 -40 25 -48 42 -33 78 17 39 84 78 189 108 32 9 -67 127
-136 160 -55 27 -166 30 -217 6z m186 -69 c53 -28 67 -49 22 -32 -38 15 -173
15 -200 0 -33 -17 -29 4 5 27 57 40 106 42 173 5z"/>
<path d="M2296 1755 c28 -239 155 -341 449 -359 257 -16 416 81 479 293 22 76
20 107 -5 52 -42 -95 -120 -164 -227 -203 -81 -29 -301 -37 -390 -14 -120 30
-224 113 -281 222 l-31 59 6 -50z"/>
</g>
</svg>
